HIERARCHY
ROOT Hips
{
	OFFSET -37.322651 -40.248280 87.840942
	CHANNELS 6 Xposition Yposition Zposition Zrotation Yrotation Xrotation
	JOINT Spine
	{
		OFFSET 0.000000 2.080109 8.814247
		CHANNELS 6 Xposition Yposition Zposition Zrotation Yrotation Xrotation
		JOINT Spine1
		{
			OFFSET 0.000000 0.000000 8.844139
			CHANNELS 6 Xposition Yposition Zposition Zrotation Yrotation Xrotation
			JOINT Spine2
			{
				OFFSET 0.000000 0.000000 11.682266
				CHANNELS 6 Xposition Yposition Zposition Zrotation Yrotation Xrotation
				JOINT Spine3
				{
					OFFSET 0.000000 0.000004 11.746704
					CHANNELS 6 Xposition Yposition Zposition Zrotation Yrotation Xrotation
					JOINT Neck
					{
						OFFSET 0.000000 0.000000 17.658264
						CHANNELS 6 Xposition Yposition Zposition Zrotation Yrotation Xrotation
						JOINT Neck1
						{
							OFFSET 0.000000 0.000000 5.101517
							CHANNELS 6 Xposition Yposition Zposition Zrotation Yrotation Xrotation
							JOINT Head
							{
								OFFSET 0.000000 0.000000 5.101517
								CHANNELS 6 Xposition Yposition Zposition Zrotation Yrotation Xrotation
								JOINT HeadEnd
								{
									OFFSET 0.000000 0.000000 11.655090
									CHANNELS 6 Xposition Yposition Zposition Zrotation Yrotation Xrotation
									End Site
									{
										OFFSET 0.000000 0.000000 0.100006
									}
								}
							}
						}
					}
					JOINT RightShoulder
					{
						OFFSET -2.625389 0.000000 11.175217
						CHANNELS 6 Xposition Yposition Zposition Zrotation Yrotation Xrotation
						JOINT RightArm
						{
							OFFSET 0.000000 0.000000 10.434723
							CHANNELS 6 Xposition Yposition Zposition Zrotation Yrotation Xrotation
							JOINT RightForeArm
							{
								OFFSET 0.000000 0.000004 29.628418
								CHANNELS 6 Xposition Yposition Zposition Zrotation Yrotation Xrotation
								JOINT RightHand
								{
									OFFSET 0.000000 0.000000 22.857605
									CHANNELS 6 Xposition Yposition Zposition Zrotation Yrotation Xrotation
									JOINT RightHandThumb1
									{
										OFFSET -2.867321 -2.944290 3.959564
										CHANNELS 6 Xposition Yposition Zposition Zrotation Yrotation Xrotation
										JOINT RightHandThumb2
										{
											OFFSET 0.000000 0.000000 3.350403
											CHANNELS 6 Xposition Yposition Zposition Zrotation Yrotation Xrotation
											JOINT RightHandThumb3
											{
												OFFSET 0.000000 0.000000 3.756516
												CHANNELS 6 Xposition Yposition Zposition Zrotation Yrotation Xrotation
												JOINT RightHandThumb4
												{
													OFFSET 0.000000 0.000000 3.147339
													CHANNELS 6 Xposition Yposition Zposition Zrotation Yrotation Xrotation
													End Site
													{
														OFFSET 0.000000 0.000000 0.100006
													}
												}
											}
										}
									}
									JOINT RightHandIndex1
									{
										OFFSET -0.086754 -2.345280 10.030899
										CHANNELS 6 Xposition Yposition Zposition Zrotation Yrotation Xrotation
										JOINT RightHandIndex2
										{
											OFFSET 0.000000 0.000000 4.061096
											CHANNELS 6 Xposition Yposition Zposition Zrotation Yrotation Xrotation
											JOINT RightHandIndex3
											{
												OFFSET 0.000000 0.000000 3.248871
												CHANNELS 6 Xposition Yposition Zposition Zrotation Yrotation Xrotation
												JOINT RightHandIndex4
												{
													OFFSET 0.000000 0.000000 2.639709
													CHANNELS 6 Xposition Yposition Zposition Zrotation Yrotation Xrotation
													End Site
													{
														OFFSET 0.000000 0.000000 0.100006
													}
												}
											}
										}
									}
									JOINT RightHandMiddle1
									{
										OFFSET 0.104103 -0.006767 9.502945
										CHANNELS 6 Xposition Yposition Zposition Zrotation Yrotation Xrotation
										JOINT RightHandMiddle2
										{
											OFFSET 0.000000 0.000000 4.568726
											CHANNELS 6 Xposition Yposition Zposition Zrotation Yrotation Xrotation
											JOINT RightHandMiddle3
											{
												OFFSET 0.000000 0.000000 3.654984
												CHANNELS 6 Xposition Yposition Zposition Zrotation Yrotation Xrotation
												JOINT RightHandMiddle4
												{
													OFFSET 0.000000 0.000000 2.741241
													CHANNELS 6 Xposition Yposition Zposition Zrotation Yrotation Xrotation
													End Site
													{
														OFFSET 0.000000 0.000000 0.100006
													}
												}
											}
										}
									}
									JOINT RightHandRing1
									{
										OFFSET 0.086754 2.267441 8.921707
										CHANNELS 6 Xposition Yposition Zposition Zrotation Yrotation Xrotation
										JOINT RightHandRing2
										{
											OFFSET 0.000000 0.000000 4.061096
											CHANNELS 6 Xposition Yposition Zposition Zrotation Yrotation Xrotation
											JOINT RightHandRing3
											{
												OFFSET 0.000000 0.000000 3.654984
												CHANNELS 6 Xposition Yposition Zposition Zrotation Yrotation Xrotation
												JOINT RightHandRing4
												{
													OFFSET 0.000000 0.000000 2.741241
													CHANNELS 6 Xposition Yposition Zposition Zrotation Yrotation Xrotation
													End Site
													{
														OFFSET 0.000000 0.000000 0.100006
													}
												}
											}
										}
									}
									JOINT RightHandPinky1
									{
										OFFSET -0.173504 4.467197 7.976990
										CHANNELS 6 Xposition Yposition Zposition Zrotation Yrotation Xrotation
										JOINT RightHandPinky2
										{
											OFFSET 0.000000 0.000000 3.350403
											CHANNELS 6 Xposition Yposition Zposition Zrotation Yrotation Xrotation
											JOINT RightHandPinky3
											{
												OFFSET 0.000000 0.000000 2.842758
												CHANNELS 6 Xposition Yposition Zposition Zrotation Yrotation Xrotation
												JOINT RightHandPinky4
												{
													OFFSET 0.000000 0.000000 2.639709
													CHANNELS 6 Xposition Yposition Zposition Zrotation Yrotation Xrotation
													End Site
													{
														OFFSET 0.000000 0.000000 0.100006
													}
												}
											}
										}
									}
									JOINT RightForeArmEnd
									{
										OFFSET 0.000000 0.000000 0.000000
										CHANNELS 6 Xposition Yposition Zposition Zrotation Yrotation Xrotation
										End Site
										{
											OFFSET 0.000000 0.000000 0.100006
										}
									}
								}
								JOINT RightArmEnd
								{
									OFFSET 0.000000 0.000000 0.000000
									CHANNELS 6 Xposition Yposition Zposition Zrotation Yrotation Xrotation
									End Site
									{
										OFFSET 0.000000 0.000000 0.100006
									}
								}
							}
						}
					}
					JOINT LeftShoulder
					{
						OFFSET 2.625389 0.000000 11.175217
						CHANNELS 6 Xposition Yposition Zposition Zrotation Yrotation Xrotation
						JOINT LeftArm
						{
							OFFSET 0.000000 0.000000 10.813629
							CHANNELS 6 Xposition Yposition Zposition Zrotation Yrotation Xrotation
							JOINT LeftForeArm
							{
								OFFSET 0.000000 0.000004 28.724777
								CHANNELS 6 Xposition Yposition Zposition Zrotation Yrotation Xrotation
								JOINT LeftHand
								{
									OFFSET 0.644382 0.328873 25.716171
									CHANNELS 6 Xposition Yposition Zposition Zrotation Yrotation Xrotation
									JOINT LeftHandThumb1
									{
										OFFSET 2.867323 -2.944290 3.959564
										CHANNELS 6 Xposition Yposition Zposition Zrotation Yrotation Xrotation
										JOINT LeftHandThumb2
										{
											OFFSET 0.000000 0.000000 3.350403
											CHANNELS 6 Xposition Yposition Zposition Zrotation Yrotation Xrotation
											JOINT LeftHandThumb3
											{
												OFFSET 0.000000 0.000000 3.756516
												CHANNELS 6 Xposition Yposition Zposition Zrotation Yrotation Xrotation
												JOINT LeftHandThumb4
												{
													OFFSET 0.000000 0.000000 3.100006
													CHANNELS 6 Xposition Yposition Zposition Zrotation Yrotation Xrotation
													End Site
													{
														OFFSET 0.000000 0.000000 0.100006
													}
												}
											}
										}
									}
									JOINT LeftHandIndex1
									{
										OFFSET 0.086754 -2.345280 10.030899
										CHANNELS 6 Xposition Yposition Zposition Zrotation Yrotation Xrotation
										JOINT LeftHandIndex2
										{
											OFFSET 0.000000 0.000000 4.061096
											CHANNELS 6 Xposition Yposition Zposition Zrotation Yrotation Xrotation
											JOINT LeftHandIndex3
											{
												OFFSET 0.000000 0.000000 3.248871
												CHANNELS 6 Xposition Yposition Zposition Zrotation Yrotation Xrotation
												JOINT LeftHandIndex4
												{
													OFFSET 0.000000 0.000000 2.639709
													CHANNELS 6 Xposition Yposition Zposition Zrotation Yrotation Xrotation
													End Site
													{
														OFFSET 0.000000 0.000000 0.100006
													}
												}
											}
										}
									}
									JOINT LeftHandMiddle1
									{
										OFFSET -0.104103 -0.006767 9.502945
										CHANNELS 6 Xposition Yposition Zposition Zrotation Yrotation Xrotation
										JOINT LeftHandMiddle2
										{
											OFFSET 0.000000 0.000000 4.568726
											CHANNELS 6 Xposition Yposition Zposition Zrotation Yrotation Xrotation
											JOINT LeftHandMiddle3
											{
												OFFSET 0.000000 0.000000 3.654984
												CHANNELS 6 Xposition Yposition Zposition Zrotation Yrotation Xrotation
												JOINT LeftHandMiddle4
												{
													OFFSET 0.000000 0.000000 2.741241
													CHANNELS 6 Xposition Yposition Zposition Zrotation Yrotation Xrotation
													End Site
													{
														OFFSET 0.000000 0.000000 0.100006
													}
												}
											}
										}
									}
									JOINT LeftHandRing1
									{
										OFFSET -0.086754 2.267441 8.921707
										CHANNELS 6 Xposition Yposition Zposition Zrotation Yrotation Xrotation
										JOINT LeftHandRing2
										{
											OFFSET 0.000000 0.000000 4.061096
											CHANNELS 6 Xposition Yposition Zposition Zrotation Yrotation Xrotation
											JOINT LeftHandRing3
											{
												OFFSET 0.000000 0.000000 3.654984
												CHANNELS 6 Xposition Yposition Zposition Zrotation Yrotation Xrotation
												JOINT LeftHandRing4
												{
													OFFSET 0.000000 0.000000 2.741241
													CHANNELS 6 Xposition Yposition Zposition Zrotation Yrotation Xrotation
													End Site
													{
														OFFSET 0.000000 0.000000 0.100006
													}
												}
											}
										}
									}
									JOINT LeftHandPinky1
									{
										OFFSET 0.173504 4.467197 7.976990
										CHANNELS 6 Xposition Yposition Zposition Zrotation Yrotation Xrotation
										JOINT LeftHandPinky2
										{
											OFFSET 0.000000 0.000000 3.350403
											CHANNELS 6 Xposition Yposition Zposition Zrotation Yrotation Xrotation
											JOINT LeftHandPinky3
											{
												OFFSET 0.000000 0.000000 2.842758
												CHANNELS 6 Xposition Yposition Zposition Zrotation Yrotation Xrotation
												JOINT LeftHandPinky4
												{
													OFFSET 0.000000 0.000000 2.639709
													CHANNELS 6 Xposition Yposition Zposition Zrotation Yrotation Xrotation
													End Site
													{
														OFFSET 0.000000 0.000000 0.100006
													}
												}
											}
										}
									}
									JOINT LeftForeArmEnd
									{
										OFFSET 0.000000 0.000000 0.000000
										CHANNELS 6 Xposition Yposition Zposition Zrotation Yrotation Xrotation
										End Site
										{
											OFFSET 0.000000 0.000000 0.100006
										}
									}
								}
								JOINT LeftArmEnd
								{
									OFFSET 0.000000 0.000000 0.000000
									CHANNELS 6 Xposition Yposition Zposition Zrotation Yrotation Xrotation
									End Site
									{
										OFFSET 0.000000 0.000000 0.100006
									}
								}
							}
						}
					}
				}
			}
		}
	}
	JOINT RightUpLeg
	{
		OFFSET -11.289944 0.000000 0.000000
		CHANNELS 6 Xposition Yposition Zposition Zrotation Yrotation Xrotation
		JOINT RightLeg
		{
			OFFSET 0.000000 -0.000004 -38.200321
			CHANNELS 6 Xposition Yposition Zposition Zrotation Yrotation Xrotation
			JOINT RightFoot
			{
				OFFSET 0.000000 -0.000004 -39.900856
				CHANNELS 6 Xposition Yposition Zposition Zrotation Yrotation Xrotation
				JOINT RightToeBase
				{
					OFFSET 0.000000 -15.261639 0.000001
					CHANNELS 6 Xposition Yposition Zposition Zrotation Yrotation Xrotation
					JOINT RightToeBaseEnd
					{
						OFFSET 0.000000 -7.370708 0.000001
						CHANNELS 6 Xposition Yposition Zposition Zrotation Yrotation Xrotation
						End Site
						{
							OFFSET 0.000000 0.000000 0.100000
						}
					}
				}
				JOINT RightLegEnd
				{
					OFFSET 0.000000 0.000000 0.000000
					CHANNELS 6 Xposition Yposition Zposition Zrotation Yrotation Xrotation
					End Site
					{
						OFFSET 0.000000 0.000000 0.100000
					}
				}
			}
			JOINT RightUpLegEnd
			{
				OFFSET 0.000000 0.000000 0.000000
				CHANNELS 6 Xposition Yposition Zposition Zrotation Yrotation Xrotation
				End Site
				{
					OFFSET 0.000000 0.000000 0.099998
				}
			}
		}
	}
	JOINT LeftUpLeg
	{
		OFFSET 11.315662 0.000000 0.000000
		CHANNELS 6 Xposition Yposition Zposition Zrotation Yrotation Xrotation
		JOINT LeftLeg
		{
			OFFSET 0.000000 -0.000004 -38.200321
			CHANNELS 6 Xposition Yposition Zposition Zrotation Yrotation Xrotation
			JOINT LeftFoot
			{
				OFFSET 0.000000 -0.000004 -39.900856
				CHANNELS 6 Xposition Yposition Zposition Zrotation Yrotation Xrotation
				JOINT LeftToeBase
				{
					OFFSET 0.000000 -15.261639 0.000001
					CHANNELS 6 Xposition Yposition Zposition Zrotation Yrotation Xrotation
					JOINT LeftToeBaseEnd
					{
						OFFSET 0.000000 -7.539997 0.000001
						CHANNELS 6 Xposition Yposition Zposition Zrotation Yrotation Xrotation
						End Site
						{
							OFFSET 0.000000 0.000000 0.100000
						}
					}
				}
				JOINT LeftLegEnd
				{
					OFFSET 0.000000 0.000000 0.000000
					CHANNELS 6 Xposition Yposition Zposition Zrotation Yrotation Xrotation
					End Site
					{
						OFFSET 0.000000 0.000000 0.100000
					}
				}
			}
			JOINT LeftUpLegEnd
			{
				OFFSET 0.000000 0.000000 0.000000
				CHANNELS 6 Xposition Yposition Zposition Zrotation Yrotation Xrotation
				End Site
				{
					OFFSET 0.000000 0.000000 0.099998
				}
			}
		}
	}
}
MOTION
Frames: 2
Frame Time: 0.016667
-4.444889 -0.380684 86.400986 -34.182040 5.647392 -18.078677 -0.000001 2.080102 8.814239 -0.068476 -2.237970 7.496968 0.000001 -0.000002 8.844129 -0.358553 -0.849439 -1.209359 -0.000004 0.000006 11.682271 -3.950975 -3.310541 19.716774 -0.000003 0.000001 11.746699 -0.674944 1.761540 0.130470 -0.000001 0.000005 17.658251 -4.685662 -3.391119 15.772222 0.000004 0.000012 5.101528 -6.879989 4.909384 -5.970866 0.000002 0.000006 5.101500 3.335636 -1.335882 -26.558446 0.000001 0.000001 11.655075 -0.000001 0.000000 0.000001 -2.625391 0.000003 11.175208 9.289856 -92.521162 0.005011 -0.000013 0.000002 10.434725 -32.777303 -42.074826 69.301982 -0.000003 -0.000000 29.628414 6.284511 0.000008 139.156362 -0.000008 0.000004 22.857576 6.501404 48.204637 29.478598 -2.867315 -2.944300 3.959571 31.530195 -18.328307 49.913991 -0.000002 0.000011 3.350400 -15.033123 9.283051 -26.791438 0.000005 -0.000004 3.756548 -9.969987 7.211242 -18.309550 -0.000008 0.000004 3.147339 -0.000002 0.000001 0.000001 -0.086769 -2.345276 10.030933 -14.160072 -24.874132 4.973483 0.000001 -0.000007 4.061102 0.090509 -17.834116 2.592378 -0.000009 -0.000000 3.248885 -0.409319 -17.834073 2.592318 -0.000008 -0.000004 2.639710 0.000000 0.000002 0.000000 0.104098 -0.006762 9.502924 -8.917792 -26.263870 2.590722 -0.000009 0.000003 4.568770 0.331910 -18.739135 1.018716 -0.000020 0.000008 3.654974 -0.174981 -18.739119 1.020923 -0.000002 0.000002 2.741253 -0.000000 -0.000003 0.000002 0.086761 2.267445 8.921676 -0.606884 -29.704926 -2.143457 0.000002 0.000002 4.061104 -0.746755 -21.154040 -1.356147 -0.000010 0.000004 3.655003 0.253247 -21.154042 -1.356145 -0.000023 -0.000004 2.741241 0.000000 -0.000000 -0.000000 -0.173530 4.467199 7.976968 8.914789 -30.249077 -8.887782 -0.000017 0.000002 3.350409 -1.130799 -21.919909 -4.486195 -0.000018 0.000000 2.842773 0.869202 -21.919918 -4.486196 -0.000004 -0.000001 2.639726 -0.000000 0.000001 -0.000000 0.000000 0.000002 -0.000015 -0.000001 0.000000 -0.000000 -0.000009 -0.000005 -0.000014 -0.000001 0.000003 0.000001 2.625411 0.000003 11.175217 -11.645163 90.434218 -0.484799 0.000021 -0.000008 10.813627 38.753288 36.822673 62.399085 -0.000008 0.000006 28.724810 -8.614312 0.873536 133.163567 0.644382 0.328871 25.716166 -11.306863 -41.057538 41.226735 2.867317 -2.944312 3.959567 -31.690722 16.746656 52.306791 -0.000007 0.000016 3.350398 11.527923 -7.943510 -20.956263 -0.000004 0.000004 3.756529 7.690611 -5.973187 -14.361033 0.000002 0.000004 3.100007 -0.000000 0.000001 -0.000000 0.086754 -2.345279 10.030917 -5.776051 16.357970 -5.108326 -0.000000 0.000002 4.061112 0.322520 11.919474 -1.699995 0.000001 0.000001 3.248873 -0.177465 11.919207 -1.699954 -0.000004 -0.000001 2.639710 -0.000001 0.000001 0.000000 -0.104106 -0.006769 9.502982 -0.156831 19.164094 -3.335908 0.000005 0.000002 4.568734 0.411684 13.729432 -0.733642 0.000003 0.000002 3.655015 -0.088320 13.729419 -0.733644 0.000010 -0.000001 2.741242 -0.000002 0.000003 0.000001 -0.086752 2.267443 8.921707 9.718425 25.058168 2.287092 0.000010 0.000001 4.061123 -0.822450 17.865152 1.129581 0.000019 -0.000006 3.655015 0.177544 17.865075 1.129553 0.000012 -0.000004 2.741211 -0.000001 -0.000003 -0.000003 0.173508 4.467203 7.976996 20.325856 27.728206 9.191110 -0.000000 0.000000 3.350436 -1.264295 20.263638 4.115277 0.000005 -0.000001 2.842770 0.735699 20.263641 4.115262 -0.000004 -0.000008 2.639694 0.000003 -0.000001 -0.000002 0.000001 0.000004 -0.000001 0.000001 -0.000000 0.000000 0.000004 -0.000000 0.000013 -0.000001 -0.000000 0.000003 -11.289942 -0.000010 0.000003 -0.880536 -4.946089 13.138576 0.000006 -0.000009 -38.200314 -0.661310 0.158783 13.500912 0.000002 -0.000006 -39.900860 -13.390909 4.448305 18.131096 -0.000000 -15.261635 0.000007 -0.871560 0.547998 -29.142979 -0.000003 -7.370705 0.000000 -0.000004 0.000000 0.000001 -0.000000 -0.000002 0.000001 0.000003 0.000001 0.000000 0.000002 -0.000002 -0.000004 0.000002 0.000001 0.000001 11.315662 -0.000002 -0.000002 7.589622 -14.529684 13.578916 0.000001 0.000001 -38.200314 1.157983 -0.504146 23.518104 0.000003 -0.000006 -39.900852 10.638667 3.791529 7.772528 0.000002 -15.261634 0.000001 0.942065 -0.943092 -27.524278 0.000002 -7.539997 0.000001 0.000000 0.000000 -0.000000 0.000003 0.000004 0.000002 0.000000 -0.000000 -0.000000 0.000001 0.000001 0.000003 -0.000002 0.000000 0.000001 
-4.784306 -0.252361 86.364113 -34.016405 5.936984 -17.967668 -0.000001 2.080102 8.814249 -0.120633 -2.407689 7.457766 -0.000005 -0.000002 8.844140 -0.335785 -0.805037 -1.269925 0.000000 0.000003 11.682271 -4.155041 -3.542139 19.702149 -0.000001 0.000005 11.746716 -0.690547 1.805023 0.157635 -0.000001 0.000001 17.658289 -4.924756 -3.308413 15.719513 0.000004 0.000008 5.101519 -7.047210 4.908377 -6.121087 -0.000000 -0.000003 5.101523 3.318570 -1.384374 -26.626432 -0.000001 0.000001 11.655075 -0.000002 0.000000 0.000000 -2.625387 -0.000001 11.175214 9.137898 -92.590010 -0.021918 -0.000015 -0.000003 10.434723 -32.179121 -42.492318 68.576937 0.000000 -0.000001 29.628395 6.372363 -0.003328 138.817899 0.000010 -0.000020 22.857616 7.057459 47.576594 29.901588 -2.867313 -2.944305 3.959565 31.530216 -18.328329 49.913971 0.000000 -0.000002 3.350395 -15.033125 9.283057 -26.791398 0.000004 -0.000014 3.756546 -9.969995 7.211234 -18.309581 -0.000013 -0.000017 3.147337 0.000001 -0.000002 0.000000 -0.086763 -2.345278 10.030928 -14.237461 -25.120823 5.160901 0.000002 -0.000003 4.061100 0.084175 -18.025113 2.621229 -0.000013 -0.000008 3.248873 -0.415824 -18.025358 2.621217 -0.000016 -0.000006 2.639707 0.000000 -0.000002 0.000002 0.104088 -0.006761 9.502983 -9.015491 -26.638725 2.766589 0.000002 0.000006 4.568733 0.326643 -19.013119 1.034783 0.000000 0.000002 3.654985 -0.176044 -19.013290 1.035682 -0.000001 -0.000004 2.741242 0.000000 0.000000 -0.000001 0.086753 2.267443 8.921704 -0.729961 -30.387194 -2.030956 0.000006 0.000005 4.061118 -0.734449 -21.632223 -1.389887 0.000008 -0.000001 3.654966 0.265550 -21.632191 -1.389890 -0.000012 0.000000 2.741255 0.000001 -0.000002 0.000001 -0.173514 4.467196 7.977010 8.833871 -31.183990 -9.070653 -0.000002 -0.000001 3.350425 -1.073887 -22.580148 -4.636485 -0.000024 0.000003 2.842757 0.926110 -22.580124 -4.636490 0.000007 0.000006 2.639723 -0.000000 -0.000001 0.000001 -0.000001 0.000006 0.000017 -0.000000 0.000002 0.000000 0.000002 0.000001 0.000014 -0.000001 -0.000001 0.000000 2.625394 -0.000006 11.175231 -11.507618 90.623551 -0.425564 0.000025 0.000004 10.813629 38.432723 37.085707 61.379147 -0.000009 0.000021 28.724771 -8.932215 0.708713 132.082266 0.644384 0.328867 25.716156 -10.728453 -39.273113 41.147204 2.867315 -2.944300 3.959567 -31.715925 16.574089 52.574193 -0.000003 0.000010 3.350420 11.148164 -7.773154 -20.314562 -0.000002 0.000025 3.756533 7.443100 -5.826100 -13.926032 -0.000002 0.000007 3.100008 -0.000000 0.000001 -0.000002 0.086753 -2.345279 10.030886 -5.907590 15.625313 -4.358851 0.000003 0.000003 4.061126 0.339893 11.330909 -1.613787 0.000003 -0.000001 3.248907 -0.160122 11.331199 -1.613797 -0.000005 -0.000001 2.639708 0.000000 -0.000001 0.000000 -0.104099 -0.006766 9.502961 -0.241222 18.710622 -2.985967 0.000008 0.000000 4.568743 0.414124 13.392456 -0.715409 0.000001 -0.000001 3.654999 -0.085623 13.392470 -0.715348 0.000008 -0.000001 2.741256 -0.000002 0.000000 0.000002 -0.086751 2.267442 8.921712 9.796113 25.362229 2.267018 0.000016 0.000001 4.061109 -0.817978 18.079203 1.144082 0.000014 -0.000004 3.654984 0.182037 18.079518 1.144118 -0.000014 -0.000008 2.741255 0.000001 -0.000000 0.000002 0.173498 4.467200 7.976974 20.745101 28.866285 9.114466 0.000009 -0.000003 3.350422 -1.204860 21.021138 4.283875 -0.000021 -0.000002 2.842779 0.795134 21.021143 4.283874 -0.000004 0.000003 2.639708 0.000001 -0.000001 0.000002 -0.000003 0.000002 -0.000016 -0.000002 -0.000000 0.000000 -0.000009 -0.000004 0.000013 0.000003 0.000000 0.000003 -11.289944 -0.000002 0.000001 -1.169577 -5.428500 13.267262 -0.000002 -0.000007 -38.200306 -0.646872 0.152511 13.245182 0.000000 -0.000004 -39.900860 -13.474905 4.701595 18.109577 -0.000005 -15.261639 0.000002 -0.868157 0.534590 -29.169604 -0.000005 -7.370711 0.000002 -0.000001 0.000001 -0.000000 -0.000000 -0.000002 -0.000001 0.000003 0.000001 0.000001 0.000000 -0.000001 -0.000004 0.000002 0.000000 0.000000 11.315664 -0.000005 -0.000006 7.563755 -15.134673 13.177798 0.000003 -0.000004 -38.200306 1.162178 -0.515975 23.936512 0.000002 -0.000008 -39.900845 10.237765 4.030571 7.624424 -0.000001 -15.261636 -0.000002 0.959877 -0.958469 -27.542767 0.000002 -7.539997 0.000001 0.000000 0.000000 0.000000 -0.000002 0.000004 -0.000000 0.000000 -0.000001 -0.000003 0.000003 0.000001 0.000009 0.000004 -0.000002 0.000002 
